<svg version="1.1" id="Layer_1" xmlns="http://www.w3.org/2000/svg" xmlns:xlink="http://www.w3.org/1999/xlink" x="0px" y="0px"
	 width="100%" viewBox="0 0 616 456" enable-background="new 0 0 616 456" xml:space="preserve">
<path fill="#000000" opacity="1.000000" stroke="none" 
	d="
M378.000000,457.000000 
	C252.029251,457.000000 126.558495,457.000000 1.043872,457.000000 
	C1.043872,305.064697 1.043872,153.129349 1.043872,1.097009 
	C206.220764,1.097009 411.441589,1.097009 616.831177,1.097009 
	C616.831177,152.999847 616.831177,304.999908 616.831177,457.000000 
	C537.462646,457.000000 457.981323,457.000000 378.000000,457.000000 
M450.001526,81.502647 
	C423.602661,68.452911 397.187988,55.434975 370.810150,42.342857 
	C351.488037,32.752720 332.398010,22.666786 312.819305,13.637116 
	C305.965424,10.476122 297.919952,8.227613 290.495178,8.426148 
	C282.390991,8.642853 273.750519,10.898977 266.422058,14.475500 
	C215.505920,39.324192 164.863113,64.733269 114.150475,89.998375 
	C103.542336,95.283348 95.016953,103.443329 93.416061,115.067757 
	C91.677719,127.690285 93.021812,140.737320 93.021812,153.802734 
	C124.825615,153.802734 157.252441,153.802734 190.204803,153.802734 
	C190.475906,150.480087 190.944305,147.269669 190.964157,144.056503 
	C191.048523,130.390518 191.641495,116.683319 190.784897,103.070702 
	C190.166183,93.238297 197.835297,84.599106 209.019760,84.915810 
	C221.842667,85.278908 234.687897,84.791534 247.516083,85.044769 
	C271.853363,85.525192 296.229065,83.623268 320.528839,86.912926 
	C339.113037,89.428818 356.438629,95.176476 371.086792,106.863281 
	C383.254639,116.571205 390.864410,129.272476 390.019806,145.721252 
	C389.879181,148.460266 390.000000,151.212738 390.000000,153.806000 
	C423.021484,153.806000 455.308624,153.806000 488.000000,153.806000 
	C488.000000,142.330063 488.079620,131.042557 487.976715,119.756721 
	C487.881042,109.266815 483.186127,100.793724 474.711456,95.134346 
	C467.130341,90.071754 458.684540,86.304100 450.001526,81.502647 
M97.599792,298.000000 
	C95.825935,298.000000 94.052078,298.000000 92.000465,298.000000 
	C92.000465,309.139740 91.432709,319.813354 92.141304,330.401581 
	C93.068810,344.261078 99.760513,354.835876 112.546532,361.155853 
	C145.438385,377.413971 178.320511,393.692078 211.173035,410.029510 
	C230.182327,419.482758 248.989349,429.354401 268.145935,438.496063 
	C282.365173,445.281555 297.279205,445.321686 311.487244,438.688049 
	C332.915283,428.683502 353.978851,417.895813 375.161011,407.367798 
	C404.857880,392.607819 434.465546,377.667145 464.221405,363.027374 
	C480.398743,355.068207 489.457947,343.206970 488.106689,324.377197 
	C487.481598,315.666534 488.000000,306.873810 488.000000,298.160248 
	C456.372253,298.160248 425.404053,298.160248 394.790741,298.160248 
	C394.790741,305.715424 395.982758,313.358124 394.554901,320.475128 
	C391.046082,337.964355 379.545197,349.591705 364.390228,358.293274 
	C346.909607,368.330170 327.718781,372.252319 308.147461,372.753113 
	C273.670227,373.635254 239.153641,373.103760 204.654694,372.929565 
	C195.564819,372.883698 189.000061,365.604736 189.000031,356.588379 
	C188.999985,343.921783 189.000000,331.255188 189.000000,318.588593 
	C189.000000,311.814911 189.000000,305.041229 189.000000,298.000000 
	C158.516006,298.000000 128.546371,298.000000 97.599792,298.000000 
M324.378021,338.991119 
	C330.892761,336.514771 337.778931,334.722992 343.850159,331.429077 
	C359.758026,322.798340 364.206909,311.411133 359.433746,294.313782 
	C315.723053,294.313782 272.012329,294.313782 227.651581,294.313782 
	C227.651581,310.625732 227.651581,326.625275 227.651581,343.000000 
	C236.017441,343.000000 244.479050,343.103058 252.937317,342.978638 
	C270.857269,342.715118 288.783234,342.541870 306.689850,341.876831 
	C312.328888,341.667358 317.914093,340.008484 324.378021,338.991119 
M325.500000,155.000000 
	C336.586853,155.000000 347.673737,155.000000 358.665131,155.000000 
	C360.760925,138.578964 351.165131,127.637787 337.846954,122.077164 
	C321.295380,115.166527 303.801361,113.126930 286.036469,113.023399 
	C267.893158,112.917664 249.748764,113.000000 231.604843,113.000000 
	C229.839294,113.000000 228.073746,113.000000 226.339417,113.000000 
	C226.339417,127.329010 226.339417,141.040924 226.339417,155.000000 
	C259.285461,155.000000 291.892731,155.000000 325.500000,155.000000 
M344.962402,198.678452 
	C340.414886,187.690933 340.414795,187.687775 329.059052,188.061646 
	C328.785553,188.070663 328.521332,188.362396 328.250092,188.535339 
	C328.250092,213.594467 328.250092,238.653595 328.250092,263.749573 
	C332.574951,263.749573 336.644928,263.749573 341.274780,263.749573 
	C341.274780,252.369614 341.274780,241.230637 341.274780,230.091675 
	C345.098572,237.807724 348.056946,245.614685 350.803040,253.495636 
	C354.546143,264.237671 354.476837,264.266632 365.500702,263.967102 
	C365.943909,263.955078 366.380219,263.688934 366.730133,263.571289 
	C366.730133,238.362350 366.730133,213.302383 366.730133,188.271179 
	C362.716003,188.271179 358.977509,188.271179 354.676514,188.271179 
	C354.676514,200.329514 354.676514,212.124542 354.676514,223.919571 
	C354.323975,223.969971 353.971466,224.020386 353.618927,224.070786 
	C350.745941,215.880386 347.872986,207.689987 344.962402,198.678452 
M140.136292,230.652466 
	C138.741379,228.697311 137.346451,226.742142 135.963623,224.803925 
	C143.092575,217.505112 143.604065,204.495148 137.944763,195.060776 
	C133.313919,187.340912 123.580307,186.979065 109.300751,188.660736 
	C109.300751,213.726578 109.300751,238.769302 109.300751,264.000000 
	C114.740028,264.000000 119.879845,264.000092 125.019653,263.999939 
	C134.121307,263.999664 141.272934,258.196228 141.843613,249.251785 
	C142.224533,243.281204 141.149521,237.217743 140.136292,230.652466 
M237.620819,225.902664 
	C238.747208,220.406845 240.920807,214.880554 240.762085,209.422104 
	C240.504150,200.553284 238.469986,191.371719 228.127426,188.924500 
	C221.741852,187.413559 214.844788,188.064316 208.309601,187.750931 
	C208.309601,213.698486 208.309601,238.767487 208.309601,263.686462 
	C212.697052,263.686462 216.769806,263.686462 221.433624,263.686462 
	C221.433624,255.266785 221.433624,247.152863 221.433624,239.038940 
	C221.796280,239.004990 222.158936,238.971054 222.521591,238.937103 
	C224.856888,247.284805 227.192184,255.632507 229.432526,263.640778 
	C234.167145,263.640778 238.544632,263.640778 243.163940,263.640778 
	C240.887192,255.528015 238.559494,247.856323 236.620987,240.087524 
	C235.496902,235.582672 232.250824,230.824081 237.620819,225.902664 
M401.533630,189.984192 
	C399.355194,194.398590 395.896271,198.635880 395.256317,203.263062 
	C393.777924,213.952866 393.431854,224.824020 393.077271,235.636383 
	C392.813660,243.674240 395.336090,251.180634 399.023956,258.286804 
	C404.554718,268.944031 420.499115,268.587708 426.058990,259.044769 
	C433.039337,247.063797 431.844238,234.112137 431.985413,221.302582 
	C425.314758,221.302582 419.244232,221.302582 413.269012,221.302582 
	C413.269012,226.701355 413.269012,231.794098 413.269012,236.848709 
	C414.980347,236.995667 416.420776,237.119370 417.999756,237.254974 
	C417.999756,238.343674 418.274384,239.294632 417.951813,239.952927 
	C416.615723,242.679321 415.608765,247.006012 413.540771,247.630234 
	C409.445007,248.866470 408.311584,244.618225 407.950684,241.390533 
	C407.099304,233.775787 406.242737,226.121353 406.175293,218.476028 
	C406.140961,214.580795 407.485931,210.559769 408.791779,206.798523 
	C410.078369,203.092819 413.064941,202.812973 415.361664,205.938141 
	C416.485626,207.467514 417.222931,209.281021 418.205811,211.096298 
	C422.376770,208.485977 426.284576,206.040375 430.246216,203.561066 
	C429.403229,201.573883 428.931549,199.826233 427.994843,198.379669 
	C425.695404,194.828598 423.848877,190.497116 420.610321,188.146378 
	C414.548126,183.746124 408.028961,185.587830 401.533630,189.984192 
M300.999725,190.680908 
	C300.225372,189.787796 299.511139,188.196747 298.666138,188.123962 
	C295.244110,187.829239 291.781921,188.001587 288.000000,188.001587 
	C288.000000,205.875275 287.980682,223.312149 288.015778,240.748917 
	C288.023071,244.383224 287.525208,248.702850 283.490997,248.693085 
	C279.470032,248.683350 278.975891,244.361328 278.984039,240.729416 
	C279.020630,224.418259 279.006714,208.106949 278.986816,191.795746 
	C278.985291,190.541962 278.796417,189.288422 278.720825,188.357483 
	C274.209534,188.357483 270.138824,188.357483 267.000153,188.357483 
	C267.000153,209.596436 266.773773,230.478012 267.139282,251.349213 
	C267.247681,257.539124 270.229858,263.465179 276.407532,265.606384 
	C283.790955,268.165466 292.581268,267.430573 295.791565,261.358734 
	C298.481628,256.270782 300.568176,250.255127 300.770508,244.573624 
	C301.397980,226.953217 301.000000,209.296265 300.999725,190.680908 
M180.000000,192.620514 
	C180.000000,191.177444 180.000000,189.734360 180.000000,188.248520 
	C175.432693,188.248520 171.360886,188.248520 167.248886,188.248520 
	C167.248886,213.568527 167.248886,238.639236 167.248886,263.747864 
	C171.574432,263.747864 175.646530,263.747864 180.000000,263.747864 
	C180.000000,240.198074 180.000000,216.899200 180.000000,192.620514 
M457.056000,188.739517 
	C457.056000,213.693314 457.056000,238.647095 457.056000,263.799591 
	C461.461731,263.799591 465.532898,263.799591 469.798157,263.799591 
	C469.798157,238.531754 469.798157,213.459198 469.798157,188.057617 
	C465.649963,188.057617 461.693115,188.057617 457.056000,188.739517 
z"/>
<path fill="#FFFFFF" opacity="1.000000" stroke="none" 
	d="
M450.310883,81.733871 
	C458.684540,86.304100 467.130341,90.071754 474.711456,95.134346 
	C483.186127,100.793724 487.881042,109.266815 487.976715,119.756721 
	C488.079620,131.042557 488.000000,142.330063 488.000000,153.806000 
	C455.308624,153.806000 423.021484,153.806000 390.000000,153.806000 
	C390.000000,151.212738 389.879181,148.460266 390.019806,145.721252 
	C390.864410,129.272476 383.254639,116.571205 371.086792,106.863281 
	C356.438629,95.176476 339.113037,89.428818 320.528839,86.912926 
	C296.229065,83.623268 271.853363,85.525192 247.516083,85.044769 
	C234.687897,84.791534 221.842667,85.278908 209.019760,84.915810 
	C197.835297,84.599106 190.166183,93.238297 190.784897,103.070702 
	C191.641495,116.683319 191.048523,130.390518 190.964157,144.056503 
	C190.944305,147.269669 190.475906,150.480087 190.204803,153.802734 
	C157.252441,153.802734 124.825615,153.802734 93.021812,153.802734 
	C93.021812,140.737320 91.677719,127.690285 93.416061,115.067757 
	C95.016953,103.443329 103.542336,95.283348 114.150475,89.998375 
	C164.863113,64.733269 215.505920,39.324192 266.422058,14.475500 
	C273.750519,10.898977 282.390991,8.642853 290.495178,8.426148 
	C297.919952,8.227613 305.965424,10.476122 312.819305,13.637116 
	C332.398010,22.666786 351.488037,32.752720 370.810150,42.342857 
	C397.187988,55.434975 423.602661,68.452911 450.310883,81.733871 
z"/>
<path fill="#FFFFFF" opacity="1.000000" stroke="none" 
	d="
M98.088264,298.000000 
	C128.546371,298.000000 158.516006,298.000000 189.000000,298.000000 
	C189.000000,305.041229 189.000000,311.814911 189.000000,318.588593 
	C189.000000,331.255188 188.999985,343.921783 189.000031,356.588379 
	C189.000061,365.604736 195.564819,372.883698 204.654694,372.929565 
	C239.153641,373.103760 273.670227,373.635254 308.147461,372.753113 
	C327.718781,372.252319 346.909607,368.330170 364.390228,358.293274 
	C379.545197,349.591705 391.046082,337.964355 394.554901,320.475128 
	C395.982758,313.358124 394.790741,305.715424 394.790741,298.160248 
	C425.404053,298.160248 456.372253,298.160248 488.000000,298.160248 
	C488.000000,306.873810 487.481598,315.666534 488.106689,324.377197 
	C489.457947,343.206970 480.398743,355.068207 464.221405,363.027374 
	C434.465546,377.667145 404.857880,392.607819 375.161011,407.367798 
	C353.978851,417.895813 332.915283,428.683502 311.487244,438.688049 
	C297.279205,445.321686 282.365173,445.281555 268.145935,438.496063 
	C248.989349,429.354401 230.182327,419.482758 211.173035,410.029510 
	C178.320511,393.692078 145.438385,377.413971 112.546532,361.155853 
	C99.760513,354.835876 93.068810,344.261078 92.141304,330.401581 
	C91.432709,319.813354 92.000465,309.139740 92.000465,298.000000 
	C94.052078,298.000000 95.825935,298.000000 98.088264,298.000000 
z"/>
<path fill="#F36E27" opacity="1.000000" stroke="none" 
	d="
M323.950989,339.002075 
	C317.914093,340.008484 312.328888,341.667358 306.689850,341.876831 
	C288.783234,342.541870 270.857269,342.715118 252.937317,342.978638 
	C244.479050,343.103058 236.017441,343.000000 227.651581,343.000000 
	C227.651581,326.625275 227.651581,310.625732 227.651581,294.313782 
	C272.012329,294.313782 315.723053,294.313782 359.434143,294.312592 
	C364.206909,311.411133 359.758026,322.798340 343.850159,331.429077 
	C337.778931,334.722992 330.892761,336.514771 323.950989,339.002075 
z"/>
<path fill="#F36E27" opacity="1.000000" stroke="none" 
	d="
M325.000000,155.000000 
	C291.892731,155.000000 259.285461,155.000000 226.339417,155.000000 
	C226.339417,141.040924 226.339417,127.329010 226.339417,113.000000 
	C228.073746,113.000000 229.839294,113.000000 231.604843,113.000000 
	C249.748764,113.000000 267.893158,112.917664 286.036469,113.023399 
	C303.801361,113.126930 321.295380,115.166527 337.846954,122.077164 
	C351.165131,127.637787 360.760925,138.578964 358.665131,155.000000 
	C347.673737,155.000000 336.586853,155.000000 325.000000,155.000000 
z"/>
<path fill="#FFFFFF" opacity="1.000000" stroke="none" 
	d="
M344.981201,199.089020 
	C347.872986,207.689987 350.745941,215.880386 353.618927,224.070786 
	C353.971466,224.020386 354.323975,223.969971 354.676514,223.919571 
	C354.676514,212.124542 354.676514,200.329514 354.676514,188.271179 
	C358.977509,188.271179 362.716003,188.271179 366.730133,188.271179 
	C366.730133,213.302383 366.730133,238.362350 366.730133,263.571289 
	C366.380219,263.688934 365.943909,263.955078 365.500702,263.967102 
	C354.476837,264.266632 354.546143,264.237671 350.803040,253.495636 
	C348.056946,245.614685 345.098572,237.807724 341.274780,230.091675 
	C341.274780,241.230637 341.274780,252.369614 341.274780,263.749573 
	C336.644928,263.749573 332.574951,263.749573 328.250092,263.749573 
	C328.250092,238.653595 328.250092,213.594467 328.251465,188.528809 
	C328.521332,188.362396 328.785553,188.070663 329.059052,188.061646 
	C340.414795,187.687775 340.414886,187.690933 344.981201,199.089020 
z"/>
<path fill="#FFFFFF" opacity="1.000000" stroke="none" 
	d="
M140.431183,230.924164 
	C141.149521,237.217743 142.224533,243.281204 141.843613,249.251785 
	C141.272934,258.196228 134.121307,263.999664 125.019653,263.999939 
	C119.879845,264.000092 114.740028,264.000000 109.300751,264.000000 
	C109.300751,238.769302 109.300751,213.726578 109.300751,188.660736 
	C123.580307,186.979065 133.313919,187.340912 137.944763,195.060776 
	C143.604065,204.495148 143.092575,217.505112 135.963623,224.803925 
	C137.346451,226.742142 138.741379,228.697311 140.431183,230.924164 
M125.058205,247.976318 
	C131.217911,246.185867 129.006958,241.045898 128.683884,237.294815 
	C128.551895,235.762329 125.088417,234.516769 123.140572,233.140686 
	C122.001015,238.134750 121.879654,241.943649 122.099686,245.732712 
	C122.145706,246.525223 123.450981,247.244598 125.058205,247.976318 
M122.021088,216.957886 
	C123.656990,216.806061 126.077736,217.277573 126.784462,216.387772 
	C129.080780,213.496536 129.822754,209.823166 127.683884,206.564911 
	C126.727104,205.107407 124.429703,204.529968 122.001259,203.125473 
	C122.001259,208.426636 122.001259,212.239807 122.021088,216.957886 
z"/>
<path fill="#FFFFFF" opacity="1.000000" stroke="none" 
	d="
M237.332291,226.166901 
	C232.250824,230.824081 235.496902,235.582672 236.620987,240.087524 
	C238.559494,247.856323 240.887192,255.528015 243.163940,263.640778 
	C238.544632,263.640778 234.167145,263.640778 229.432526,263.640778 
	C227.192184,255.632507 224.856888,247.284805 222.521591,238.937103 
	C222.158936,238.971054 221.796280,239.004990 221.433624,239.038940 
	C221.433624,247.152863 221.433624,255.266785 221.433624,263.686462 
	C216.769806,263.686462 212.697052,263.686462 208.309601,263.686462 
	C208.309601,238.767487 208.309601,213.698486 208.309601,187.750931 
	C214.844788,188.064316 221.741852,187.413559 228.127426,188.924500 
	C238.469986,191.371719 240.504150,200.553284 240.762085,209.422104 
	C240.920807,214.880554 238.747208,220.406845 237.332291,226.166901 
M221.000000,209.643982 
	C221.000000,213.047501 221.000000,216.451004 221.000000,220.239624 
	C226.262604,219.439377 228.215408,216.123306 227.819519,212.134521 
	C227.464279,208.555161 227.134186,203.798691 221.000000,204.157928 
	C221.000000,205.759384 221.000000,207.230743 221.000000,209.643982 
z"/>
<path fill="#FFFFFF" opacity="1.000000" stroke="none" 
	d="
M401.798096,189.704315 
	C408.028961,185.587830 414.548126,183.746124 420.610321,188.146378 
	C423.848877,190.497116 425.695404,194.828598 427.994843,198.379669 
	C428.931549,199.826233 429.403229,201.573883 430.246216,203.561066 
	C426.284576,206.040375 422.376770,208.485977 418.205811,211.096298 
	C417.222931,209.281021 416.485626,207.467514 415.361664,205.938141 
	C413.064941,202.812973 410.078369,203.092819 408.791779,206.798523 
	C407.485931,210.559769 406.140961,214.580795 406.175293,218.476028 
	C406.242737,226.121353 407.099304,233.775787 407.950684,241.390533 
	C408.311584,244.618225 409.445007,248.866470 413.540771,247.630234 
	C415.608765,247.006012 416.615723,242.679321 417.951813,239.952927 
	C418.274384,239.294632 417.999756,238.343674 417.999756,237.254974 
	C416.420776,237.119370 414.980347,236.995667 413.269012,236.848709 
	C413.269012,231.794098 413.269012,226.701355 413.269012,221.302582 
	C419.244232,221.302582 425.314758,221.302582 431.985413,221.302582 
	C431.844238,234.112137 433.039337,247.063797 426.058990,259.044769 
	C420.499115,268.587708 404.554718,268.944031 399.023956,258.286804 
	C395.336090,251.180634 392.813660,243.674240 393.077271,235.636383 
	C393.431854,224.824020 393.777924,213.952866 395.256317,203.263062 
	C395.896271,198.635880 399.355194,194.398590 401.798096,189.704315 
z"/>
<path fill="#FFFFFF" opacity="1.000000" stroke="none" 
	d="
M300.999878,191.167206 
	C301.000000,209.296265 301.397980,226.953217 300.770508,244.573624 
	C300.568176,250.255127 298.481628,256.270782 295.791565,261.358734 
	C292.581268,267.430573 283.790955,268.165466 276.407532,265.606384 
	C270.229858,263.465179 267.247681,257.539124 267.139282,251.349213 
	C266.773773,230.478012 267.000153,209.596436 267.000153,188.357483 
	C270.138824,188.357483 274.209534,188.357483 278.720825,188.357483 
	C278.796417,189.288422 278.985291,190.541962 278.986816,191.795746 
	C279.006714,208.106949 279.020630,224.418259 278.984039,240.729416 
	C278.975891,244.361328 279.470032,248.683350 283.490997,248.693085 
	C287.525208,248.702850 288.023071,244.383224 288.015778,240.748917 
	C287.980682,223.312149 288.000000,205.875275 288.000000,188.001587 
	C291.781921,188.001587 295.244110,187.829239 298.666138,188.123962 
	C299.511139,188.196747 300.225372,189.787796 300.999878,191.167206 
z"/>
<path fill="#FFFFFF" opacity="1.000000" stroke="none" 
	d="
M180.000000,193.110428 
	C180.000000,216.899200 180.000000,240.198074 180.000000,263.747864 
	C175.646530,263.747864 171.574432,263.747864 167.248886,263.747864 
	C167.248886,238.639236 167.248886,213.568527 167.248886,188.248520 
	C171.360886,188.248520 175.432693,188.248520 180.000000,188.248520 
	C180.000000,189.734360 180.000000,191.177444 180.000000,193.110428 
z"/>
<path fill="#FFFFFF" opacity="1.000000" stroke="none" 
	d="
M457.396118,188.398560 
	C461.693115,188.057617 465.649963,188.057617 469.798157,188.057617 
	C469.798157,213.459198 469.798157,238.531754 469.798157,263.799591 
	C465.532898,263.799591 461.461731,263.799591 457.056000,263.799591 
	C457.056000,238.647095 457.056000,213.693314 457.396118,188.398560 
z"/>
<path fill="#000000" opacity="1.000000" stroke="none" 
	d="
M124.617081,247.987000 
	C123.450981,247.244598 122.145706,246.525223 122.099686,245.732712 
	C121.879654,241.943649 122.001015,238.134750 123.140572,233.140686 
	C125.088417,234.516769 128.551895,235.762329 128.683884,237.294815 
	C129.006958,241.045898 131.217911,246.185867 124.617081,247.987000 
z"/>
<path fill="#000000" opacity="1.000000" stroke="none" 
	d="
M122.011169,216.505432 
	C122.001259,212.239807 122.001259,208.426636 122.001259,203.125473 
	C124.429703,204.529968 126.727104,205.107407 127.683884,206.564911 
	C129.822754,209.823166 129.080780,213.496536 126.784462,216.387772 
	C126.077736,217.277573 123.656990,216.806061 122.011169,216.505432 
z"/>
<path fill="#000000" opacity="1.000000" stroke="none" 
	d="
M221.000000,209.173035 
	C221.000000,207.230743 221.000000,205.759384 221.000000,204.157928 
	C227.134186,203.798691 227.464279,208.555161 227.819519,212.134521 
	C228.215408,216.123306 226.262604,219.439377 221.000000,220.239624 
	C221.000000,216.451004 221.000000,213.047501 221.000000,209.173035 
z"/>
</svg>